<?xml version="1.0" encoding="UTF-8"?>
<svg id="Layer_1" data-name="Layer 1" xmlns="http://www.w3.org/2000/svg" version="1.1" xmlns:xlink="http://www.w3.org/1999/xlink" viewBox="0 0 12 12">
  <defs>
    <style>
      .cls-1 {
        fill: #79aceb;
        stroke-width: 0px;
      }
    </style>
  </defs>
  <path class="cls-1" d="M1,5.1v.8l5,3.1,5-3.1v-.8l-5,3.1L1,5.1Z"/>
  <path class="cls-1" d="M8,6.2l.7-.5c-.6-.9-1.6-1.4-2.7-1.4s-2.1.6-2.7,1.4h0c1.4-1.3,3.4-1,4.5.5h.1Z"/>
  <path class="cls-1" d="M4.5,6.5c.3-.2.6-.3.9-.3.5,0,1,.3,1.3.7l.7-.4c-.3-.5-.8-.8-1.5-.8s-1.2.3-1.5.8h.1ZM2.6,4.5c2.1-1.6,5-1.2,6.5,1h0l.8-.5c-.9-1.3-2.3-2.1-3.9-2.1s-3,.8-3.9,2.1c.2-.2.3-.4.5-.5Z"/>
  <image width="1919" height="991" transform="translate(-1534.6 55.1)" xlink:href="logo4-1.png"/>
</svg>