<?xml version="1.0" encoding="UTF-8"?>
<svg id="Layer_2" data-name="Layer 2" xmlns="http://www.w3.org/2000/svg" xmlns:xlink="http://www.w3.org/1999/xlink" viewBox="0 0 103.46 109.79">
  <defs>
    <style>
      .cls-1 {
        fill: url(#linear-gradient);
      }

      .cls-1, .cls-2, .cls-3 {
        stroke-width: 0px;
      }

      .cls-2 {
        fill: #d1d8de;
      }

      .cls-4 {
        opacity: .45;
      }

      .cls-3 {
        fill: url(#linear-gradient-2);
      }
    </style>
    <linearGradient id="linear-gradient" x1="0" y1="26.78" x2="103.46" y2="26.78" gradientUnits="userSpaceOnUse">
      <stop offset="0" stop-color="#f71e06"/>
      <stop offset=".5" stop-color="#f2e713"/>
      <stop offset="1" stop-color="#2a8d08"/>
    </linearGradient>
    <linearGradient id="linear-gradient-2" y1="74.38" y2="74.38" xlink:href="#linear-gradient"/>
  </defs>
  <g id="Layer_1-2" data-name="Layer 1">
    <g>
      <g class="cls-4">
        <path class="cls-2" d="M101.63,5.45c-1.16,0-2.27.23-3.29.65-2.8,1.15-4.9,3.71-5.32,6.84-.49,3.63-1.46,7.18-2.89,10.56-2.1,4.96-5.1,9.42-8.93,13.25-3.83,3.83-8.29,6.84-13.25,8.94-5.14,2.17-10.59,3.27-16.22,3.27s-11.08-1.1-16.22-3.27c-4.96-2.1-9.42-5.1-13.25-8.94-3.83-3.83-6.84-8.29-8.93-13.25-1.43-3.38-2.4-6.93-2.89-10.56-.41-3.08-2.46-5.61-5.19-6.78-1.06-.45-2.21-.7-3.42-.7H0v1.83c0,13.82,5.38,26.81,15.15,36.58,9.77,9.77,22.76,15.15,36.58,15.15s26.81-5.38,36.58-15.15c9.77-9.77,15.15-22.76,15.15-36.58v-1.83h-1.83Z"/>
        <path class="cls-2" d="M101.64,49.87c-12.44,0-23.14,7.63-27.66,18.45-1.26,3.01-2.04,6.27-2.24,9.69-.04.6-.05,1.21-.05,1.82,0,5.33-2.08,10.34-5.84,14.11-3.77,3.77-8.78,5.84-14.11,5.84s-10.34-2.08-14.11-5.84c-3.77-3.77-5.84-8.78-5.84-14.11,0-.61-.02-1.22-.05-1.82-.21-3.41-.99-6.67-2.24-9.69-4.52-10.83-15.22-18.45-27.66-18.45H0v1.82c0,1.11.2,2.18.57,3.17h0c1.01,2.74,3.3,4.89,6.24,5.64,3.43.88,6.59,2.68,9.13,5.22,3.77,3.77,5.84,8.78,5.84,14.11h0c0,3.89.76,7.76,2.22,11.33.35.86.74,1.7,1.17,2.52.52,1,1.1,1.96,1.72,2.88,5.53,8.23,14.78,13.22,24.85,13.22s19.31-4.99,24.85-13.22c.62-.92,1.2-1.88,1.72-2.89l.21-.4h0c.13-.27.26-.53.38-.79.06-.13.12-.26.18-.39.06-.13.12-.27.17-.4s.11-.27.17-.4c.02-.05.04-.09.06-.14h0c.03-.07.05-.13.08-.19.01-.02.02-.05.03-.07.05-.13.11-.27.16-.41.1-.27.2-.54.3-.82.05-.14.09-.27.14-.41.02-.07.05-.14.07-.21.21-.63.39-1.28.55-1.92.03-.1.05-.2.07-.3.09-.36.16-.72.24-1.08.02-.08.03-.15.05-.23.04-.19.07-.39.11-.59.02-.13.04-.25.06-.38.02-.13.04-.25.06-.38.02-.14.04-.28.06-.43.04-.29.07-.57.1-.86.02-.15.03-.3.04-.46.01-.15.03-.31.04-.46,0-.07.01-.14.01-.21,0-.13.02-.25.02-.38,0-.04,0-.08,0-.12,0-.18.01-.35.02-.53,0-.3.01-.6.01-.9,0-5.33,2.08-10.34,5.85-14.11,2.54-2.54,5.69-4.34,9.12-5.22,2.94-.75,5.23-2.9,6.24-5.64.37-.99.57-2.06.57-3.17v-1.82h-1.82Z"/>
      </g>
      <g>
        <path class="cls-1" d="M101.63,0c-1.16,0-2.27.23-3.29.65-2.8,1.15-4.9,3.71-5.32,6.84-.49,3.63-1.46,7.18-2.89,10.56-2.1,4.96-5.1,9.42-8.93,13.25-3.83,3.83-8.29,6.84-13.25,8.94-5.14,2.17-10.59,3.27-16.22,3.27s-11.08-1.1-16.22-3.27c-4.96-2.1-9.42-5.1-13.25-8.94-3.83-3.83-6.84-8.29-8.93-13.25-1.43-3.38-2.4-6.93-2.89-10.56-.41-3.08-2.46-5.61-5.19-6.78-1.06-.45-2.21-.7-3.42-.7H0v1.83c0,13.82,5.38,26.81,15.15,36.58,9.77,9.77,22.76,15.15,36.58,15.15s26.81-5.38,36.58-15.15c9.77-9.77,15.15-22.76,15.15-36.58V0h-1.83Z"/>
        <path class="cls-3" d="M101.64,44.42c-12.44,0-23.14,7.63-27.66,18.45-1.26,3.01-2.04,6.27-2.24,9.69-.04.6-.05,1.21-.05,1.82,0,5.33-2.08,10.34-5.84,14.11-3.77,3.77-8.78,5.84-14.11,5.84s-10.34-2.08-14.11-5.84c-3.77-3.77-5.84-8.78-5.84-14.11,0-.61-.02-1.22-.05-1.82-.21-3.41-.99-6.67-2.24-9.69-4.52-10.83-15.22-18.45-27.66-18.45H0v1.82c0,1.11.2,2.18.57,3.17h0c1.01,2.74,3.3,4.89,6.24,5.64,3.43.88,6.59,2.68,9.13,5.22,3.77,3.77,5.84,8.78,5.84,14.11h0c0,3.89.76,7.76,2.22,11.33.35.86.74,1.7,1.17,2.52.52,1,1.1,1.96,1.72,2.88,5.53,8.23,14.78,13.22,24.85,13.22s19.31-4.99,24.85-13.22c.62-.92,1.2-1.88,1.72-2.89l.21-.4h0c.13-.27.26-.53.38-.79.06-.13.12-.26.18-.39.06-.13.12-.27.17-.4s.11-.27.17-.4c.02-.05.04-.09.06-.14h0c.03-.07.05-.13.08-.19.01-.02.02-.05.03-.07.05-.13.11-.27.16-.41.1-.27.2-.54.3-.82.05-.14.09-.27.14-.41.02-.07.05-.14.07-.21.21-.63.39-1.28.55-1.92.03-.1.05-.2.07-.3.09-.36.16-.72.24-1.08.02-.08.03-.15.05-.23.04-.19.07-.39.11-.59.02-.13.04-.25.06-.38.02-.13.04-.25.06-.38.02-.14.04-.28.06-.43.04-.29.07-.57.1-.86.02-.15.03-.3.04-.46.01-.15.03-.31.04-.46,0-.07.01-.14.01-.21,0-.13.02-.25.02-.38,0-.04,0-.08,0-.12,0-.18.01-.35.02-.53,0-.3.01-.6.01-.9,0-5.33,2.08-10.34,5.85-14.11,2.54-2.54,5.69-4.34,9.12-5.22,2.94-.75,5.23-2.9,6.24-5.64.37-.99.57-2.06.57-3.17v-1.82h-1.82Z"/>
      </g>
    </g>
  </g>
</svg>