<?xml version="1.0" encoding="UTF-8"?>
<svg id="Layer_1" data-name="Layer 1" xmlns="http://www.w3.org/2000/svg" version="1.1" viewBox="0 0 12 12">
  <defs>
    <style>
      .cls-1 {
        fill: #4c5461;
        stroke-width: 0px;
      }
    </style>
  </defs>
  <path class="cls-1" d="M1,5.1v.8l5,3.1,5-3.1v-.8l-5,3.1L1,5.1Z"/>
  <path class="cls-1" d="M8,6.2l.7-.5c-.6-.9-1.6-1.4-2.7-1.4s-2.1.6-2.7,1.4c0,0,0,0,.1-.1,1.4-1.2,3.4-.9,4.5.6Z"/>
  <path class="cls-1" d="M4.5,6.5c.3-.2.6-.3.9-.3.5,0,1,.3,1.3.7l.7-.4c-.3-.5-.8-.8-1.5-.8s-1.2.3-1.5.8ZM2.6,4.5c2.1-1.6,5-1.2,6.5,1h0s.8-.5.8-.5c-.9-1.3-2.3-2.1-3.9-2.1-1.6,0-3,.8-3.9,2.1.2-.2.3-.4.5-.5Z"/>
</svg>