<?xml version="1.0" encoding="UTF-8"?>
<svg id="Layer_2" data-name="Layer 2" xmlns="http://www.w3.org/2000/svg" xmlns:xlink="http://www.w3.org/1999/xlink" viewBox="0 0 568.75 573.56">
  <defs>
    <style>
      .cls-1 {
        fill: url(#linear-gradient);
      }

      .cls-1, .cls-2 {
        stroke-width: 0px;
      }

      .cls-2 {
        fill: url(#linear-gradient-2);
      }
    </style>
    <linearGradient id="linear-gradient" x1="284.38" y1="294.43" x2="284.38" y2="0" gradientUnits="userSpaceOnUse">
      <stop offset="0" stop-color="#4e8fd4"/>
      <stop offset=".5" stop-color="#79b0e6"/>
      <stop offset="1" stop-color="#a3cff8"/>
    </linearGradient>
    <linearGradient id="linear-gradient-2" y1="573.56" y2="244.18" xlink:href="#linear-gradient"/>
  </defs>
  <g id="Layer_1-2" data-name="Layer 1">
    <g>
      <path class="cls-1" d="M558.7,0c-6.36,0-12.47,1.26-18.07,3.56-15.37,6.31-26.92,20.4-29.24,37.59-2.7,19.93-8.05,39.47-15.91,58.06-11.53,27.27-28.05,51.77-49.11,72.83-21.06,21.06-45.56,37.58-72.84,49.12-28.23,11.93-58.23,17.98-89.16,17.98s-60.93-6.05-89.16-17.98c-27.27-11.54-51.78-28.06-72.83-49.12-21.06-21.06-37.58-45.57-49.11-72.83-7.86-18.58-13.21-38.12-15.91-58.06-2.28-16.93-13.5-30.85-28.52-37.29C23.04,1.37,16.68,0,10.05,0H0v10.05c0,75.96,29.58,147.37,83.29,201.09,53.71,53.71,125.12,83.29,201.08,83.29s147.38-29.58,201.09-83.29,83.29-125.13,83.29-201.09V0h-10.05Z"/>
      <path class="cls-2" d="M558.75,244.18c-68.41,0-127.21,41.93-152.06,101.44-6.92,16.56-11.2,34.49-12.33,53.25-.2,3.31-.3,6.64-.3,10,0,29.3-11.41,56.84-32.12,77.56-20.72,20.72-48.27,32.13-77.56,32.13s-56.85-11.41-77.57-32.13c-20.71-20.72-32.12-48.26-32.12-77.56,0-3.36-.1-6.69-.3-10-1.13-18.76-5.42-36.69-12.33-53.25-24.85-59.51-83.65-101.44-152.06-101.44H0v10c0,6.1,1.09,11.98,3.11,17.44h0c5.55,15.04,18.13,26.86,34.28,30.99,18.87,4.82,36.22,14.75,50.17,28.7,20.72,20.71,32.13,48.26,32.13,77.56h0c0,21.36,4.19,42.64,12.21,62.29,1.92,4.72,4.07,9.36,6.43,13.88,2.87,5.5,6.02,10.79,9.43,15.85,30.42,45.24,81.26,72.67,136.62,72.67s106.18-27.43,136.61-72.66c3.41-5.07,6.57-10.36,9.44-15.86l1.14-2.19v-.03c.72-1.43,1.42-2.87,2.09-4.33.33-.72.67-1.44.99-2.16.33-.73.65-1.46.96-2.19s.62-1.46.93-2.2c.11-.26.21-.52.31-.78h0c.15-.36.3-.71.43-1.06.06-.12.11-.25.15-.37.3-.74.58-1.48.87-2.23.57-1.49,1.12-2.99,1.63-4.5.27-.75.52-1.5.77-2.26.13-.38.25-.76.37-1.14,1.13-3.48,2.14-7.01,3.02-10.57.14-.54.27-1.08.41-1.63.47-1.97.9-3.95,1.3-5.94.09-.42.17-.84.25-1.27.21-1.06.41-2.14.59-3.22.12-.69.24-1.39.35-2.09.11-.69.22-1.38.32-2.08.11-.78.22-1.56.32-2.34.21-1.57.4-3.14.56-4.72.09-.84.17-1.67.24-2.51.08-.85.14-1.7.2-2.55.03-.39.06-.78.08-1.18.05-.69.09-1.38.12-2.08.02-.22.03-.45.04-.67.04-.97.08-1.94.11-2.91.05-1.66.08-3.31.08-4.97,0-29.3,11.41-56.85,32.14-77.56,13.94-13.95,31.29-23.88,50.16-28.7,16.16-4.13,28.73-15.95,34.28-30.99,2.02-5.46,3.11-11.34,3.11-17.44v-10h-10Z"/>
    </g>
  </g>
</svg>