<?xml version="1.0" encoding="UTF-8"?>
<svg id="Layer_2" data-name="Layer 2" xmlns="http://www.w3.org/2000/svg" xmlns:xlink="http://www.w3.org/1999/xlink" viewBox="0 0 138.83 147.32">
  <defs>
    <style>
      .cls-1 {
        fill: url(#linear-gradient);
      }

      .cls-1, .cls-2, .cls-3 {
        stroke-width: 0px;
      }

      .cls-2 {
        fill: #d1d8de;
      }

      .cls-4 {
        opacity: .45;
      }

      .cls-3 {
        fill: url(#linear-gradient-2);
      }
    </style>
    <linearGradient id="linear-gradient" x1="69.42" y1="71.87" x2="69.42" y2="0" gradientUnits="userSpaceOnUse">
      <stop offset="0" stop-color="#4e8fd4"/>
      <stop offset=".5" stop-color="#79b0e6"/>
      <stop offset="1" stop-color="#a3cff8"/>
    </linearGradient>
    <linearGradient id="linear-gradient-2" y1="140" y2="59.6" xlink:href="#linear-gradient"/>
  </defs>
  <g id="Layer_1-2" data-name="Layer 1">
    <g>
      <g class="cls-4">
        <path class="cls-2" d="M136.38,7.31c-1.55,0-3.04.31-4.41.87-3.75,1.54-6.57,4.98-7.14,9.18-.66,4.86-1.96,9.63-3.88,14.17-2.81,6.66-6.85,12.64-11.99,17.78-5.14,5.14-11.12,9.17-17.78,11.99-6.89,2.91-14.21,4.39-21.76,4.39s-14.87-1.48-21.76-4.39c-6.66-2.82-12.64-6.85-17.78-11.99-5.14-5.14-9.17-11.12-11.99-17.78-1.92-4.54-3.22-9.31-3.88-14.17-.56-4.13-3.3-7.53-6.96-9.1-1.42-.61-2.97-.94-4.59-.94H0v2.45c0,18.54,7.22,35.97,20.33,49.09,13.11,13.11,30.54,20.33,49.08,20.33s35.97-7.22,49.09-20.33c13.11-13.11,20.33-30.54,20.33-49.09v-2.45h-2.45Z"/>
        <path class="cls-2" d="M136.39,66.92c-16.7,0-31.05,10.23-37.12,24.76-1.69,4.04-2.73,8.42-3.01,13-.05.81-.07,1.62-.07,2.44,0,7.15-2.79,13.87-7.84,18.93-5.06,5.06-11.78,7.84-18.93,7.84s-13.88-2.79-18.93-7.84c-5.06-5.06-7.84-11.78-7.84-18.93,0-.82-.02-1.63-.07-2.44-.28-4.58-1.32-8.96-3.01-13-6.07-14.53-20.42-24.76-37.12-24.76H0v2.44c0,1.49.27,2.92.76,4.26h0c1.36,3.67,4.43,6.56,8.37,7.56,4.61,1.18,8.84,3.6,12.25,7.01,5.06,5.06,7.84,11.78,7.84,18.93h0c0,5.22,1.02,10.41,2.98,15.21.47,1.15.99,2.28,1.57,3.39.7,1.34,1.47,2.63,2.3,3.87,7.43,11.04,19.84,17.74,33.35,17.74s25.92-6.7,33.35-17.74c.83-1.24,1.6-2.53,2.3-3.87l.28-.53h0c.18-.36.35-.71.51-1.06.08-.18.16-.35.24-.53.08-.18.16-.36.23-.53s.15-.36.23-.54c.03-.06.05-.13.08-.19h0c.04-.09.07-.17.1-.26.01-.03.03-.06.04-.09.07-.18.14-.36.21-.54.14-.36.27-.73.4-1.1.07-.18.13-.37.19-.55.03-.09.06-.19.09-.28.28-.85.52-1.71.74-2.58.03-.13.07-.26.1-.4.11-.48.22-.96.32-1.45.02-.1.04-.21.06-.31.05-.26.1-.52.14-.79.03-.17.06-.34.09-.51.03-.17.05-.34.08-.51.03-.19.05-.38.08-.57.05-.38.1-.77.14-1.15.02-.21.04-.41.06-.61.02-.21.03-.41.05-.62,0-.1.01-.19.02-.29.01-.17.02-.34.03-.51,0-.05,0-.11,0-.16,0-.24.02-.47.03-.71.01-.41.02-.81.02-1.21,0-7.15,2.79-13.88,7.85-18.93,3.4-3.41,7.64-5.83,12.24-7.01,3.94-1.01,7.01-3.89,8.37-7.56.49-1.33.76-2.77.76-4.26v-2.44h-2.44Z"/>
      </g>
      <g>
        <path class="cls-1" d="M136.38,0c-1.55,0-3.04.31-4.41.87-3.75,1.54-6.57,4.98-7.14,9.18-.66,4.86-1.96,9.63-3.88,14.17-2.81,6.66-6.85,12.64-11.99,17.78-5.14,5.14-11.12,9.17-17.78,11.99-6.89,2.91-14.21,4.39-21.76,4.39s-14.87-1.48-21.76-4.39c-6.66-2.82-12.64-6.85-17.78-11.99-5.14-5.14-9.17-11.12-11.99-17.78-1.92-4.54-3.22-9.31-3.88-14.17-.56-4.13-3.3-7.53-6.96-9.1-1.42-.61-2.97-.94-4.59-.94H0v2.45c0,18.54,7.22,35.97,20.33,49.09,13.11,13.11,30.54,20.33,49.08,20.33s35.97-7.22,49.09-20.33c13.11-13.11,20.33-30.54,20.33-49.09V0h-2.45Z"/>
        <path class="cls-3" d="M136.39,59.6c-16.7,0-31.05,10.23-37.12,24.76-1.69,4.04-2.73,8.42-3.01,13-.05.81-.07,1.62-.07,2.44,0,7.15-2.79,13.87-7.84,18.93-5.06,5.06-11.78,7.84-18.93,7.84s-13.88-2.79-18.93-7.84c-5.06-5.06-7.84-11.78-7.84-18.93,0-.82-.02-1.63-.07-2.44-.28-4.58-1.32-8.96-3.01-13-6.07-14.53-20.42-24.76-37.12-24.76H0v2.44c0,1.49.27,2.92.76,4.26h0c1.36,3.67,4.43,6.56,8.37,7.56,4.61,1.18,8.84,3.6,12.25,7.01,5.06,5.06,7.84,11.78,7.84,18.93h0c0,5.22,1.02,10.41,2.98,15.21.47,1.15.99,2.28,1.57,3.39.7,1.34,1.47,2.63,2.3,3.87,7.43,11.04,19.84,17.74,33.35,17.74s25.92-6.7,33.35-17.74c.83-1.24,1.6-2.53,2.3-3.87l.28-.53h0c.18-.36.35-.71.51-1.06.08-.18.16-.35.24-.53.08-.18.16-.36.23-.53s.15-.36.23-.54c.03-.06.05-.13.08-.19h0c.04-.09.07-.17.1-.26.01-.03.03-.06.04-.09.07-.18.14-.36.21-.54.14-.36.27-.73.4-1.1.07-.18.13-.37.19-.55.03-.09.06-.19.09-.28.28-.85.52-1.71.74-2.58.03-.13.07-.26.1-.4.11-.48.22-.96.32-1.45.02-.1.04-.21.06-.31.05-.26.1-.52.14-.79.03-.17.06-.34.09-.51.03-.17.05-.34.08-.51.03-.19.05-.38.08-.57.05-.38.1-.77.14-1.15.02-.21.04-.41.06-.61.02-.21.03-.41.05-.62,0-.1.01-.19.02-.29.01-.17.02-.34.03-.51,0-.05,0-.11,0-.16,0-.24.02-.47.03-.71.01-.41.02-.81.02-1.21,0-7.15,2.79-13.88,7.85-18.93,3.4-3.41,7.64-5.83,12.24-7.01,3.94-1.01,7.01-3.89,8.37-7.56.49-1.33.76-2.77.76-4.26v-2.44h-2.44Z"/>
      </g>
    </g>
  </g>
</svg>