<?xml version="1.0" encoding="UTF-8"?>
<svg id="Layer_1" data-name="Layer 1" xmlns="http://www.w3.org/2000/svg" version="1.1" viewBox="0 0 30 30">
  <defs>
    <style>
      .cls-1 {
        fill: #69ba44;
        fill-rule: evenodd;
        stroke-width: 0px;
      }
    </style>
  </defs>
  <path class="cls-1" d="M7.5,7.6C7.5,3.5,10.9,0,15,0s7.5,3.4,7.5,7.5-2.8,7-6.6,7.4v10.4c0,.5-.4.9-.9.9s-.9-.4-.9-.9v-10.4c-3.8-.5-6.6-3.7-6.6-7.4h0ZM12.2,23.7c0,.5-.3,1-.8,1.1-1.3.2-2.4.6-3.1.9-.3.1-.5.3-.7.5,0,0,0,.1,0,.2h0c0,.2.2.3.3.3.3.2.8.5,1.5.7,1.4.5,3.4.8,5.7.8s4.3-.3,5.7-.8c.7-.2,1.2-.5,1.5-.7.1,0,.2-.2.3-.3h0s0-.1-.1-.2c-.2-.2-.4-.4-.7-.5-.7-.4-1.8-.7-3.1-.9-.5,0-.9-.5-.8-1.1s.5-.9,1.1-.8h0c1.4.2,2.7.6,3.7,1.1.9.5,1.8,1.2,1.8,2.3s-.5,1.4-1,1.8-1.3.8-2.1,1c-1.6.5-3.9.9-6.3.9s-4.6-.3-6.3-.9c-.8-.3-1.5-.6-2.1-1-.5-.4-1-1-1-1.8s.9-1.9,1.8-2.3c.9-.5,2.2-.9,3.7-1.1.5,0,1,.3,1.1.8"/>
</svg>